- 
http://www.Speed.Cd      fast  and The Hottest Private Tracker on the net

Please Seed back to make the speed Faster!!!

------------------nfo--------------------------
-[img]http://img4.imageshack.us/img4/5233/7lives.jpg[/img]

7lives.2011.BRRip.XviD.AC3-EMBER
 
http://www.imdb.com/title/tt1558246 

Plot:
Tom, a married man with kids, is struggling at work when a client tries to seduce him with promises of 
a 'more exciting life'. On his way home one night he gets attacked by a gang of hoodies and falls into 
a parallel world where he lives 5 other lives including a Rock-Star, a Homeless person and the 'hoody' 
that attacked him

Source                           : 720p.BluRay.X264-7SinS Thanks

General
Complete name                    : D:\Encodes\EMBER-7Lives.avFormat                         
Format/Info                      : Audio Video Interleave
File size                        : 1.56 GiB
Duration                         : 1h 39mn
Overall bit rate                 : 2 238 Kbps
Writing application              : VirtualDubMod 1.5.10.2 (build 2540/release)
Writing library                  : VirtualDubMod build 2540/release

Video
ID                               : 0
Format                           : MPEG-4 Visual
Format profile                   : Advanced Simple@L5
Format settings, BVOP            : 2
Format settings, QPel            : No
Format settings, GMC             : No warppoints
Format settings, Matrix          : Default (H.263)
Muxing mode                      : Packed bitstream
Codec ID                         : XVID
Codec ID/Hint                    : XviD
Duration                         : 1h 39mn
Bit rate                         : 1 845 Kbps
Width                            : 720 pixels
Height                           : 400 pixels
Display aspect ratio             : 16:9
Frame rate                       : 24.000 fps
Color space                      : YUV
Chroma subsampling               : 4:2:0
Bit depth                        : 8 bits
Scan type                        : Progressive
Compression mode                 : Lossy
Bits/(Pixel*Frame)               : 0.267
Stream size                      : 1.28 GiB (82%)
Writing library                  : XviD 64

Audio
ID                               : 1
Format                           : AC-3
Format/Info                      : Audio Coding 3
Mode extension                   : CM (complete main)
Codec ID                         : 2000
Duration                         : 1h 39mn
Bit rate mode                    : Constant
Bit rate                         : 384 Kbps
Channel(s)                       : 6 channels
Channel positions                : Front: L C R, Side: L R, LFE
Sampling rate                    : 48.0 KHz
Bit depth                        : 16 bits
Compression mode                 : Lossy
Stream size                      : 273 MiB (17%)
Alignment                        : Split accross interleaves
Interleave, duration             : 42 ms (1.00 video frame)
Interleave, preload duration     : 500 ms

Notes
Resized, added denoiser and a weak degrainer, and added sharpness

Screens
[img]http://img827.imageshack.us/img827/2696/34016399.png[/img]
[img]http://img18.imageshack.us/img18/9996/53546047.png[/img]
[img]http://img202.imageshack.us/img202/430/47532640.png[/img]
[img]http://img18.imageshack.us/img18/7420/27047145.png[/img]

Greetz to 

SHiRK, SHK, LKRG, UnKnOwN, IMAGiNE, SiC, BHRG, TaRiQ786, FLAWL3SS, Rx, Hive-CM8

SAMURAi, ViSUALiSE, RemixHD

And to all other groups past and present

Got something to offer?

then you should know where to find u